<svg width="20" height="20" viewBox="0 0 20 20" fill="none" xmlns="http://www.w3.org/2000/svg">
<path d="M18.7439 13.7206L18.1043 13.3289L18.1043 13.3289L18.7439 13.7206ZM17.7893 15.2794L18.429 15.6711L18.429 15.6711L17.7893 15.2794ZM1.25608 6.27942L0.616465 5.88775L0.616465 5.88775L1.25608 6.27942ZM2.21062 4.72057L2.85023 5.11223L2.85023 5.11223L2.21062 4.72057ZM4.8185 4.06172L5.17708 3.403L5.17708 3.403L4.8185 4.06172ZM1.95485 8.73826L1.59627 9.39699L1.59627 9.39699L1.95485 8.73826ZM15.1815 15.9383L14.8229 16.597L14.8229 16.597L15.1815 15.9383ZM18.0451 11.2617L17.6865 11.9204L17.6865 11.9204L18.0451 11.2617ZM2.21062 15.2794L1.57101 15.6711L1.57101 15.6711L2.21062 15.2794ZM1.25607 13.7206L1.89568 13.3289L1.89568 13.3289L1.25607 13.7206ZM17.7893 4.72058L18.429 4.32892L18.429 4.32892L17.7893 4.72058ZM18.7439 6.27943L18.1043 6.67109L18.1043 6.67109L18.7439 6.27943ZM18.0451 8.73828L18.4037 9.397L18.4037 9.397L18.0451 8.73828ZM15.1815 4.06174L15.5401 4.72046L15.5401 4.72046L15.1815 4.06174ZM1.95485 11.2617L2.31343 11.9205L2.31343 11.9205L1.95485 11.2617ZM4.8185 15.9383L4.45992 15.2795L4.45992 15.2795L4.8185 15.9383ZM15.08 4.11698L14.7214 3.45825L14.7214 3.45825L15.08 4.11698ZM4.91999 4.11697L4.5614 4.77569L4.5614 4.77569L4.91999 4.11697ZM15.08 15.883L15.4386 15.2243L15.4386 15.2243L15.08 15.883ZM4.91998 15.883L5.27856 16.5418L5.27857 16.5418L4.91998 15.883ZM9.04543 1.75H10.9545V0.25H9.04543V1.75ZM10.9545 18.25H9.04543V19.75H10.9545V18.25ZM9.04543 18.25C8.36309 18.25 7.88634 17.7389 7.88634 17.2H6.38634C6.38634 18.6493 7.61905 19.75 9.04543 19.75V18.25ZM12.1136 17.2C12.1136 17.7389 11.6369 18.25 10.9545 18.25V19.75C12.3809 19.75 13.6136 18.6493 13.6136 17.2H12.1136ZM10.9545 1.75C11.6369 1.75 12.1136 2.26107 12.1136 2.8H13.6136C13.6136 1.35071 12.3809 0.25 10.9545 0.25V1.75ZM9.04543 0.25C7.61905 0.25 6.38634 1.35071 6.38634 2.8H7.88634C7.88634 2.26107 8.36309 1.75 9.04543 1.75V0.25ZM18.1043 13.3289L17.1497 14.8878L18.429 15.6711L19.3835 14.1122L18.1043 13.3289ZM1.89569 6.67108L2.85023 5.11223L1.57101 4.32891L0.616465 5.88775L1.89569 6.67108ZM2.85023 5.11223C3.15887 4.6082 3.88053 4.40506 4.45992 4.72045L5.17708 3.403C3.93025 2.72428 2.31674 3.11109 1.57101 4.32891L2.85023 5.11223ZM2.31344 8.07954C1.75745 7.77688 1.60428 7.14696 1.89569 6.67108L0.616465 5.88775C-0.146497 7.13373 0.326046 8.70553 1.59627 9.39699L2.31344 8.07954ZM17.1497 14.8878C16.8411 15.3918 16.1194 15.5949 15.5401 15.2795L14.8229 16.597C16.0697 17.2757 17.6832 16.8889 18.429 15.6711L17.1497 14.8878ZM19.3835 14.1122C20.1465 12.8663 19.6739 11.2945 18.4037 10.603L17.6865 11.9204C18.2425 12.2231 18.3957 12.853 18.1043 13.3289L19.3835 14.1122ZM2.85023 14.8878L1.89568 13.3289L0.616464 14.1122L1.57101 15.6711L2.85023 14.8878ZM17.1497 5.11224L18.1043 6.67109L19.3835 5.88777L18.429 4.32892L17.1497 5.11224ZM18.1043 6.67109C18.3957 7.14697 18.2425 7.77689 17.6865 8.07955L18.4037 9.397C19.6739 8.70554 20.1465 7.13374 19.3835 5.88777L18.1043 6.67109ZM15.5401 4.72046C16.1194 4.40507 16.8411 4.60822 17.1497 5.11225L18.429 4.32892C17.6832 3.1111 16.0697 2.72429 14.8229 3.40301L15.5401 4.72046ZM1.89568 13.3289C1.60428 12.853 1.75745 12.2231 2.31343 11.9205L1.59627 10.603C0.326045 11.2945 -0.146498 12.8663 0.616464 14.1122L1.89568 13.3289ZM1.57101 15.6711C2.31674 16.8889 3.93025 17.2757 5.17708 16.597L4.45992 15.2795C3.88053 15.5949 3.15887 15.3918 2.85023 14.8878L1.57101 15.6711ZM15.4386 4.7757L15.5401 4.72046L14.8229 3.40301L14.7214 3.45825L15.4386 4.7757ZM4.45992 4.72045L4.5614 4.77569L5.27857 3.45824L5.17708 3.403L4.45992 4.72045ZM15.5401 15.2795L15.4386 15.2243L14.7214 16.5417L14.8229 16.597L15.5401 15.2795ZM4.56141 15.2243L4.45992 15.2795L5.17708 16.597L5.27856 16.5418L4.56141 15.2243ZM1.59627 9.39699C2.07402 9.65705 2.07402 10.3429 1.59627 10.603L2.31343 11.9205C3.83497 11.0922 3.83497 8.90779 2.31344 8.07954L1.59627 9.39699ZM5.27857 16.5418C5.77797 16.2699 6.38634 16.6314 6.38634 17.2H7.88634C7.88634 15.4934 6.06033 14.4084 4.5614 15.2243L5.27857 16.5418ZM13.6136 17.2C13.6136 16.6314 14.222 16.2699 14.7214 16.5417L15.4386 15.2243C13.9396 14.4083 12.1136 15.4934 12.1136 17.2H13.6136ZM18.4037 10.603C17.926 10.3429 17.926 9.65706 18.4037 9.397L17.6865 8.07955C16.165 8.9078 16.165 11.0922 17.6865 11.9204L18.4037 10.603ZM4.5614 4.77569C6.06033 5.59165 7.88634 4.50663 7.88634 2.8H6.38634C6.38634 3.3686 5.77797 3.7301 5.27857 3.45824L4.5614 4.77569ZM14.7214 3.45825C14.222 3.73011 13.6136 3.36861 13.6136 2.8H12.1136C12.1136 4.50663 13.9396 5.59166 15.4386 4.7757L14.7214 3.45825ZM12.25 10C12.25 11.2426 11.2426 12.25 9.99999 12.25V13.75C12.0711 13.75 13.75 12.0711 13.75 10H12.25ZM9.99999 12.25C8.75735 12.25 7.74999 11.2426 7.74999 10H6.24999C6.24999 12.0711 7.92893 13.75 9.99999 13.75V12.25ZM7.74999 10C7.74999 8.75736 8.75735 7.75 9.99999 7.75V6.25C7.92893 6.25 6.24999 7.92893 6.24999 10H7.74999ZM9.99999 7.75C11.2426 7.75 12.25 8.75736 12.25 10H13.75C13.75 7.92893 12.0711 6.25 9.99999 6.25V7.75Z" fill="#111827"/>
</svg>
